<svg width="241" height="30" viewBox="0 0 241 30" fill="none" xmlns="http://www.w3.org/2000/svg">
<path fill-rule="evenodd" clip-rule="evenodd" d="M28.9375 12.2584C29.6367 13.2553 30.0104 14.4441 30.0075 15.6617L30.0058 15.6582C29.9999 16.8809 29.6194 18.0724 28.9156 19.0722C28.2117 20.072 27.2184 20.832 26.0693 21.2499C26.4094 22.1667 26.4412 23.1693 26.1599 24.1058C25.8786 25.0423 25.2996 25.8615 24.5107 26.4392C23.7217 27.017 22.7659 27.3216 21.7882 27.307C20.8105 27.2924 19.8642 26.9594 19.0929 26.3584C18.0504 27.8142 16.5725 28.9013 14.8724 29.463C13.1722 30.0247 11.3376 30.0319 9.63303 29.4836C7.92851 28.9353 6.44212 27.8599 5.38821 26.4124C4.3343 24.9649 3.76734 23.2201 3.76905 21.4295C3.77044 20.8887 3.82242 20.3491 3.92428 19.818C2.77341 19.4076 1.77806 18.6505 1.07528 17.651C0.372492 16.6514 -0.00316662 15.4587 2.01081e-05 14.2368C0.00627077 13.0145 0.386703 11.8233 1.09015 10.8237C1.79359 9.82399 2.7863 9.06373 3.93474 8.64513C3.59351 7.72786 3.56055 6.72436 3.8408 5.78665C4.12106 4.84894 4.69926 4.02809 5.48787 3.44848C6.27645 2.86886 7.23248 2.56204 8.21107 2.57448C9.1897 2.58692 10.1376 2.91796 10.9112 3.51743C11.9598 2.0635 13.4424 0.979507 15.1459 0.421319C16.8494 -0.13687 18.686 -0.140504 20.3917 0.410937C22.0974 0.962383 23.5843 2.0405 24.6386 3.49029C25.693 4.94006 26.2604 6.68683 26.2594 8.47946C26.2593 9.02103 26.2067 9.56131 26.1024 10.0928C27.2482 10.505 28.2384 11.2614 28.9375 12.2584ZM11.7973 12.8746L18.3638 15.8728L24.9915 10.0683C25.0869 9.5894 25.1343 9.1021 25.1327 8.61377C25.1324 7.0327 24.6261 5.49328 23.6878 4.22072C22.7496 2.94817 21.4287 2.00929 19.9184 1.54148C18.4082 1.07367 16.7879 1.10148 15.2946 1.62085C13.8013 2.14021 12.5133 3.12387 11.6193 4.4279L10.5153 10.1381L11.7973 12.8746ZM5.00037 19.8284C4.90357 20.3149 4.85508 20.8097 4.8556 21.3057C4.85564 22.8933 5.36459 24.4391 6.30774 25.7162C7.25089 26.9934 8.57857 27.9345 10.0959 28.4016C11.6133 28.8687 13.2404 28.8371 14.7385 28.3115C16.2366 27.7859 17.5267 26.7939 18.4196 25.4811L19.5132 19.7831L18.0533 16.9925L11.4623 13.9891L5.00037 19.8284ZM9.46012 9.52765L4.96029 8.46548C4.69608 7.74426 4.67257 6.95686 4.89335 6.22116C5.11409 5.48546 5.5672 4.84109 6.18485 4.38447C6.8025 3.92787 7.55142 3.68362 8.31952 3.68829C9.08759 3.69297 9.83351 3.94633 10.4455 4.41042L9.46012 9.52765ZM4.56963 9.53637C3.58231 9.86955 2.72337 10.5021 2.11227 11.3461C1.50115 12.1901 1.16826 13.2035 1.15987 14.2455C1.15916 15.2525 1.46497 16.2359 2.03665 17.0649C2.60834 17.894 3.41881 18.5293 4.36033 18.8866L10.674 13.1798L9.51419 10.7032L4.56963 9.53637ZM21.6952 26.1986C20.9293 26.1945 20.1853 25.9428 19.5742 25.4811L20.5527 20.3883L25.049 21.4348C25.3111 22.1544 25.3334 22.9395 25.1125 23.6729C24.8917 24.4062 24.4395 25.0485 23.8236 25.5037C23.2077 25.9589 22.461 26.2027 21.6952 26.1986ZM20.4881 19.204L25.4379 20.3604C26.4258 20.0281 27.2853 19.3958 27.8965 18.5516C28.5078 17.7074 28.8403 16.6935 28.8477 15.6512C28.8468 14.6463 28.5404 13.6655 27.9691 12.8387C27.3978 12.012 26.5886 11.3786 25.649 11.0224L19.1748 16.6907L20.4881 19.204Z" fill="white"/>
<path d="M41.9564 21.0004L42.5564 20.9394L42.5983 22.1603C41.2633 22.3619 39.916 22.4726 38.566 22.4917C37.0776 22.4917 36.023 22.0609 35.4021 21.1993C34.7812 20.3377 34.4713 18.997 34.4725 17.1774C34.4725 13.5531 35.9131 11.7403 38.7945 11.7392C40.1895 11.7392 41.2305 12.1287 41.9163 12.9078C42.6024 13.6868 42.9464 14.9077 42.9488 16.5704L42.8669 17.7494H36.044C36.044 18.8936 36.2508 19.7412 36.6649 20.2923C37.0786 20.8435 37.7986 21.119 38.8242 21.119C39.8519 21.1225 40.8959 21.083 41.9564 21.0004ZM41.3983 16.5146C41.3983 15.246 41.1956 14.3501 40.7895 13.8269C40.3838 13.3037 39.7221 13.0415 38.805 13.0403C37.8876 13.0403 37.1979 13.3159 36.7364 13.867C36.2749 14.4182 36.037 15.3007 36.023 16.5146H41.3983Z" fill="white"/>
<path d="M45.1116 22.4097V8.8056H46.6622V22.4097H45.1116Z" fill="white"/>
<path d="M56.4275 15.067V20.2819C56.4275 20.8051 57.7144 20.7772 57.7144 20.7772L57.6359 22.1481C56.5461 22.1481 55.6444 22.2388 55.1037 21.7138C53.9327 22.2338 52.6646 22.4984 51.3834 22.4899C50.4335 22.4899 49.7096 22.2207 49.2118 21.6824C48.7144 21.1441 48.466 20.3702 48.4671 19.361C48.4671 18.3541 48.7224 17.6128 49.2328 17.1372C49.7435 16.6617 50.5427 16.371 51.631 16.2652L54.877 15.9565V15.067C54.877 14.3693 54.7256 13.8659 54.4235 13.5566C54.2578 13.4011 54.0624 13.2807 53.8489 13.2028C53.6354 13.1249 53.4084 13.0909 53.1816 13.1031H49.1072V11.7375H53.0787C54.2508 11.7375 55.102 12.0066 55.6322 12.545C56.1624 13.0833 56.4275 13.924 56.4275 15.067ZM50.056 19.2842C50.056 20.5528 50.5793 21.1871 51.6258 21.1871C52.5698 21.186 53.5071 21.025 54.3973 20.7109L54.8717 20.5452V17.1338L51.8177 17.4233C51.1967 17.4791 50.7485 17.6582 50.4729 17.9605C50.1973 18.2628 50.0585 18.7041 50.056 19.2842Z" fill="white"/>
<path d="M62.4813 13.124C60.9778 13.124 60.226 13.6473 60.226 14.6938C60.226 15.1775 60.4005 15.5187 60.7493 15.7175C61.0981 15.9164 61.8837 16.1233 63.1057 16.3385C64.3336 16.5535 65.2022 16.8535 65.7112 17.2384C66.2205 17.6233 66.4758 18.3465 66.4769 19.4081C66.4769 20.4708 66.1357 21.2499 65.453 21.7452C64.7707 22.2405 63.7748 22.4888 62.4656 22.49C61.6109 22.49 58.7574 22.1725 58.7574 22.1725L58.8412 20.8295C60.4807 20.9865 61.665 21.1034 62.4656 21.1034C63.2662 21.1034 63.8749 20.976 64.2952 20.7214C64.7156 20.4668 64.9249 20.0394 64.9249 19.4395C64.9249 18.8395 64.7505 18.4331 64.3877 18.2186C64.0249 18.0041 63.2435 17.8018 62.0313 17.6081C60.8191 17.4145 59.9557 17.132 59.4464 16.7605C58.9371 16.389 58.6807 15.6983 58.6807 14.692C58.6807 13.6856 59.0295 12.9479 59.7464 12.4595C60.4633 11.9712 61.3423 11.7357 62.4028 11.7357C63.2435 11.7357 66.1612 11.9503 66.1612 11.9503V13.3019C64.6214 13.2339 63.3621 13.124 62.4813 13.124Z" fill="white"/>
<path d="M73.9503 13.288H70.6629V18.2308C70.6629 19.4157 70.7491 20.1941 70.9211 20.5662C71.0955 20.9395 71.5036 21.1243 72.1507 21.1243L73.9905 21.0005L74.0951 22.2824C73.3985 22.4112 72.6931 22.4876 71.985 22.5109C70.9106 22.5109 70.1665 22.2487 69.7524 21.7243C69.3384 21.1999 69.1322 20.2005 69.1333 18.7261V13.288H67.6716V11.945H69.1402V8.78122H70.6699V11.945H73.9503V13.288Z" fill="white"/>
<path d="M76.1062 10.6248V8.82483H77.6567V10.6248H76.1062ZM76.1062 22.4097V11.945H77.6567V22.4097H76.1062Z" fill="white"/>
<path d="M84.3733 11.7375C85.1477 11.7705 85.919 11.8538 86.6826 11.9869L87.1779 12.0479L87.1169 13.3089C86.3065 13.2062 85.4916 13.1445 84.675 13.124C83.5029 13.124 82.7072 13.4031 82.2876 13.9612C81.8676 14.5193 81.6572 15.553 81.6562 17.0622C81.6562 18.5738 81.8526 19.6249 82.2457 20.2156C82.6385 20.8063 83.4583 21.1028 84.7047 21.1051L87.1465 20.9202L87.2093 22.2022C86.2587 22.3632 85.2984 22.4599 84.3349 22.4917C82.7233 22.4917 81.6108 22.0777 80.9969 21.2499C80.3829 20.422 80.0759 19.0267 80.0759 17.064C80.0759 15.1001 80.4066 13.7217 81.0684 12.9287C81.7298 12.1357 82.8314 11.7386 84.3733 11.7375Z" fill="white"/>
<path d="M193.837 26.4086C193.624 26.4086 193.413 26.3854 193.205 26.3392C192.997 26.2929 192.81 26.2328 192.643 26.1588L192.893 25.4166C193.328 25.5831 193.721 25.6432 194.072 25.5969C194.429 25.5507 194.743 25.3888 195.016 25.1113C195.289 24.8339 195.52 24.4269 195.71 23.8904L196.195 22.5585L192.29 11.7574H193.198L196.584 21.3237H196.653L200.038 11.7574H200.947L196.452 24.2234C196.281 24.7043 196.066 25.1067 195.807 25.4304C195.548 25.7542 195.252 25.9969 194.919 26.1588C194.59 26.3253 194.23 26.4086 193.837 26.4086Z" fill="white"/>
<path d="M190.506 11.7574V12.5136H185.851V11.7574H190.506ZM187.426 9.20456H188.265V19.8946C188.265 20.3294 188.349 20.6855 188.515 20.963C188.686 21.2358 188.908 21.4393 189.181 21.5734C189.458 21.7029 189.755 21.7677 190.069 21.7677C190.222 21.7677 190.353 21.7561 190.464 21.733C190.58 21.7099 190.689 21.6798 190.791 21.6428L190.998 22.4128C190.869 22.459 190.726 22.4984 190.568 22.5307C190.411 22.5677 190.226 22.5862 190.013 22.5862C189.57 22.5862 189.149 22.4868 188.751 22.2879C188.358 22.0891 188.039 21.8 187.794 21.4208C187.548 21.0415 187.426 20.5837 187.426 20.0473V9.20456Z" fill="white"/>
<path d="M182.843 22.4128V11.7574H183.683V22.4128H182.843ZM183.267 9.87053C183.081 9.87053 182.919 9.80579 182.781 9.6763C182.647 9.54678 182.58 9.38956 182.58 9.20457C182.58 9.01958 182.647 8.86233 182.781 8.73284C182.915 8.60335 183.077 8.5386 183.267 8.5386C183.451 8.5386 183.611 8.60335 183.745 8.73284C183.884 8.86233 183.953 9.01958 183.953 9.20457C183.953 9.38956 183.886 9.54678 183.752 9.6763C183.618 9.80579 183.456 9.87053 183.267 9.87053Z" fill="white"/>
<path d="M179.787 8.2056V22.4128H178.941V8.2056H179.787Z" fill="white"/>
<path d="M175.044 22.4128V11.7574H175.884V22.4128H175.044ZM175.468 9.87053C175.283 9.87053 175.121 9.80579 174.982 9.6763C174.848 9.54678 174.781 9.38956 174.781 9.20457C174.781 9.01958 174.848 8.86233 174.982 8.73284C175.116 8.60335 175.278 8.5386 175.468 8.5386C175.653 8.5386 175.812 8.60335 175.946 8.73284C176.085 8.86233 176.154 9.01958 176.154 9.20457C176.154 9.38956 176.087 9.54678 175.953 9.6763C175.819 9.80579 175.657 9.87053 175.468 9.87053Z" fill="white"/>
<path d="M163.962 22.4128V8.2056H164.801V14.1368H164.885C165.051 13.679 165.287 13.2581 165.592 12.8743C165.897 12.4904 166.276 12.1829 166.73 11.9517C167.183 11.7158 167.713 11.5979 168.318 11.5979C169.174 11.5979 169.921 11.836 170.559 12.3124C171.197 12.7841 171.692 13.4362 172.044 14.2686C172.395 15.0965 172.571 16.0445 172.571 17.1128C172.571 18.1904 172.395 19.1454 172.044 19.9779C171.692 20.8057 171.2 21.4555 170.566 21.9272C169.932 22.3989 169.185 22.6348 168.325 22.6348C167.72 22.6348 167.19 22.5192 166.737 22.2879C166.283 22.0521 165.904 21.7422 165.599 21.3584C165.294 20.9699 165.055 20.5467 164.885 20.0889H164.787V22.4128H163.962ZM164.794 17.1059C164.794 18.0124 164.931 18.824 165.204 19.5409C165.481 20.253 165.879 20.8172 166.397 21.2335C166.915 21.6451 167.534 21.8509 168.256 21.8509C168.987 21.8509 169.611 21.6428 170.129 21.2265C170.647 20.8057 171.042 20.2369 171.315 19.52C171.593 18.8032 171.732 17.9985 171.732 17.1059C171.732 16.2133 171.593 15.4109 171.315 14.6987C171.042 13.9865 170.647 13.4246 170.129 13.013C169.611 12.5968 168.987 12.3887 168.256 12.3887C167.534 12.3887 166.915 12.5945 166.397 13.0061C165.879 13.4131 165.481 13.9726 165.204 14.6849C164.931 15.3924 164.794 16.1995 164.794 17.1059Z" fill="white"/>
<path d="M156.254 22.6417C155.639 22.6417 155.075 22.5192 154.561 22.2741C154.052 22.0289 153.643 21.6705 153.333 21.1988C153.028 20.7271 152.875 20.1536 152.875 19.4784C152.875 19.0344 152.954 18.6436 153.112 18.306C153.269 17.9684 153.511 17.6771 153.84 17.432C154.168 17.1868 154.589 16.9857 155.102 16.8284C155.616 16.6666 156.228 16.5417 156.941 16.4538C157.482 16.3891 157.965 16.3266 158.391 16.2665C158.816 16.2018 159.149 16.1023 159.39 15.9682C159.635 15.8341 159.757 15.6306 159.757 15.3578V14.9138C159.757 14.1368 159.512 13.5194 159.022 13.0616C158.532 12.6037 157.857 12.3748 156.996 12.3748C156.233 12.3748 155.59 12.5436 155.068 12.8812C154.55 13.2142 154.187 13.6443 153.978 14.1715L153.181 13.8732C153.384 13.3645 153.678 12.9413 154.062 12.6037C154.45 12.2661 154.894 12.0141 155.394 11.8476C155.898 11.6811 156.425 11.5979 156.975 11.5979C157.452 11.5979 157.905 11.6649 158.335 11.799C158.77 11.9331 159.156 12.1366 159.494 12.4095C159.836 12.6824 160.106 13.0315 160.305 13.457C160.504 13.8778 160.604 14.3819 160.604 14.9693V22.4128H159.757V20.4912H159.695C159.51 20.8889 159.255 21.252 158.932 21.5803C158.612 21.9041 158.226 22.1631 157.773 22.3573C157.325 22.5469 156.818 22.6417 156.254 22.6417ZM156.337 21.8578C157.003 21.8578 157.593 21.696 158.106 21.3722C158.624 21.0439 159.029 20.5953 159.32 20.0264C159.611 19.4576 159.757 18.8125 159.757 18.091V16.5232C159.651 16.6157 159.496 16.699 159.292 16.7729C159.093 16.8423 158.867 16.9047 158.612 16.9602C158.363 17.0111 158.099 17.0573 157.822 17.099C157.549 17.136 157.283 17.1706 157.024 17.203C156.247 17.2955 155.613 17.4389 155.123 17.6331C154.638 17.8228 154.282 18.0725 154.055 18.3823C153.833 18.6922 153.722 19.0668 153.722 19.5061C153.722 20.2323 153.971 20.8057 154.471 21.2265C154.971 21.6474 155.593 21.8578 156.337 21.8578Z" fill="white"/>
<path d="M151.598 11.7574L147.748 22.4128H146.791L142.941 11.7574H143.85L147.235 21.3237H147.305L150.69 11.7574H151.598Z" fill="white"/>
<path d="M137.314 22.4128V11.7574H138.14V13.4223H138.216C138.447 12.8766 138.838 12.4396 139.388 12.1112C139.939 11.7782 140.565 11.6118 141.269 11.6118C141.343 11.6118 141.416 11.6118 141.49 11.6118C141.564 11.6118 141.634 11.6141 141.698 11.6187V12.472C141.643 12.4673 141.576 12.4604 141.497 12.4511C141.423 12.4372 141.331 12.4303 141.22 12.4303C140.628 12.4303 140.101 12.5575 139.638 12.8119C139.18 13.0662 138.82 13.4177 138.556 13.8663C138.292 14.3103 138.16 14.819 138.16 15.3925V22.4128H137.314Z" fill="white"/>
<path d="M130.664 22.6348C129.703 22.6348 128.865 22.3966 128.153 21.9203C127.441 21.4439 126.891 20.7918 126.502 19.964C126.114 19.1362 125.919 18.1927 125.919 17.1337C125.919 16.07 126.114 15.1219 126.502 14.2895C126.895 13.457 127.434 12.8003 128.118 12.3193C128.803 11.8384 129.585 11.5979 130.463 11.5979C131.06 11.5979 131.624 11.7181 132.156 11.9586C132.692 12.1945 133.164 12.5367 133.571 12.9853C133.983 13.4339 134.304 13.975 134.535 14.6085C134.771 15.2421 134.889 15.9544 134.889 16.7452V17.2724H126.453V16.5024H134.043C134.043 15.7301 133.885 15.034 133.571 14.4143C133.256 13.7946 132.829 13.3021 132.288 12.9367C131.747 12.5714 131.138 12.3887 130.463 12.3887C129.756 12.3887 129.125 12.5876 128.57 12.9853C128.019 13.3784 127.582 13.9102 127.258 14.5808C126.939 15.2514 126.773 16.0006 126.759 16.8284V17.1753C126.759 18.0633 126.914 18.861 127.224 19.5686C127.538 20.2715 127.987 20.8288 128.57 21.2404C129.152 21.6474 129.85 21.8509 130.664 21.8509C131.247 21.8509 131.744 21.7538 132.156 21.5595C132.572 21.3607 132.912 21.1202 133.176 20.8381C133.439 20.556 133.638 20.2831 133.772 20.0195L134.542 20.3317C134.38 20.6878 134.128 21.0439 133.786 21.4C133.448 21.7515 133.018 22.0451 132.496 22.281C131.978 22.5169 131.368 22.6348 130.664 22.6348Z" fill="white"/>
<path d="M123.943 14.0536L123.159 14.2617C123.035 13.8732 122.857 13.5379 122.625 13.2558C122.394 12.9737 122.103 12.7564 121.751 12.6037C121.404 12.4465 120.988 12.3679 120.503 12.3679C119.721 12.3679 119.08 12.5621 118.581 12.9506C118.086 13.3391 117.839 13.8455 117.839 14.4698C117.839 14.9786 118.007 15.3994 118.345 15.7324C118.683 16.0607 119.198 16.3105 119.892 16.4816L121.529 16.8909C122.371 17.099 123.005 17.4366 123.43 17.9037C123.856 18.3661 124.068 18.9419 124.068 19.631C124.068 20.2184 123.909 20.7387 123.59 21.1919C123.27 21.6451 122.829 21.9989 122.265 22.2532C121.705 22.5076 121.053 22.6348 120.308 22.6348C119.314 22.6348 118.498 22.4036 117.86 21.9411C117.222 21.474 116.812 20.8057 116.632 19.9363L117.443 19.7281C117.596 20.4218 117.913 20.9514 118.394 21.3168C118.879 21.6775 119.515 21.8578 120.301 21.8578C121.171 21.8578 121.872 21.652 122.403 21.2404C122.94 20.8288 123.208 20.3016 123.208 19.6588C123.208 19.1685 123.051 18.7546 122.736 18.417C122.422 18.0794 121.945 17.832 121.307 17.6748L119.608 17.2585C118.738 17.0458 118.086 16.7059 117.652 16.2388C117.217 15.7671 116.999 15.1866 116.999 14.4976C116.999 13.9241 117.15 13.42 117.45 12.9853C117.751 12.5505 118.165 12.2106 118.692 11.9655C119.219 11.7204 119.823 11.5979 120.503 11.5979C121.404 11.5979 122.14 11.8106 122.709 12.2361C123.277 12.6615 123.689 13.2674 123.943 14.0536Z" fill="white"/>
<path d="M106.132 22.4128V8.2056H106.971V14.1368H107.054C107.221 13.679 107.457 13.2581 107.762 12.8743C108.067 12.4904 108.447 12.1829 108.9 11.9517C109.353 11.7158 109.882 11.5979 110.488 11.5979C111.344 11.5979 112.091 11.836 112.729 12.3124C113.367 12.7841 113.862 13.4362 114.213 14.2686C114.565 15.0965 114.741 16.0445 114.741 17.1128C114.741 18.1904 114.565 19.1454 114.213 19.9779C113.862 20.8057 113.369 21.4555 112.736 21.9272C112.102 22.3989 111.355 22.6348 110.495 22.6348C109.889 22.6348 109.36 22.5192 108.907 22.2879C108.453 22.0521 108.074 21.7422 107.769 21.3584C107.463 20.9699 107.226 20.5467 107.054 20.0889H106.957V22.4128H106.132ZM106.964 17.1059C106.964 18.0124 107.101 18.824 107.373 19.5409C107.651 20.253 108.048 20.8172 108.567 21.2335C109.085 21.6451 109.704 21.8509 110.426 21.8509C111.156 21.8509 111.781 21.6428 112.299 21.2265C112.817 20.8057 113.212 20.2369 113.485 19.52C113.762 18.8032 113.901 17.9985 113.901 17.1059C113.901 16.2133 113.762 15.4109 113.485 14.6987C113.212 13.9865 112.817 13.4246 112.299 13.013C111.781 12.5968 111.156 12.3887 110.426 12.3887C109.704 12.3887 109.085 12.5945 108.567 13.0061C108.048 13.4131 107.651 13.9726 107.373 14.6849C107.101 15.3924 106.964 16.1995 106.964 17.1059Z" fill="white"/>
<path d="M98.8556 22.6348C97.9768 22.6348 97.1955 22.3989 96.511 21.9272C95.8266 21.4508 95.2877 20.7965 94.8945 19.964C94.5014 19.1316 94.305 18.1835 94.305 17.1198C94.305 16.0515 94.5014 15.1034 94.8945 14.2756C95.2877 13.4431 95.8266 12.7887 96.511 12.3124C97.1955 11.836 97.9768 11.5979 98.8556 11.5979C99.7343 11.5979 100.516 11.836 101.2 12.3124C101.885 12.7887 102.424 13.4431 102.817 14.2756C103.21 15.108 103.407 16.0561 103.407 17.1198C103.407 18.1835 103.21 19.1316 102.817 19.964C102.424 20.7965 101.885 21.4508 101.2 21.9272C100.516 22.3989 99.7343 22.6348 98.8556 22.6348ZM98.8556 21.8509C99.6003 21.8509 100.25 21.6405 100.805 21.2196C101.365 20.7988 101.797 20.2299 102.102 19.5131C102.412 18.7963 102.567 17.9985 102.567 17.1198C102.567 16.2411 102.412 15.4456 102.102 14.7334C101.792 14.0166 101.36 13.4478 100.805 13.0269C100.25 12.6014 99.6003 12.3887 98.8556 12.3887C98.1111 12.3887 97.4613 12.6014 96.9063 13.0269C96.3513 13.4478 95.9191 14.0166 95.6093 14.7334C95.2992 15.4456 95.1443 16.2411 95.1443 17.1198C95.1443 17.9985 95.2971 18.7963 95.6023 19.5131C95.9121 20.2299 96.3446 20.7988 96.8993 21.2196C97.4592 21.6405 98.1111 21.8509 98.8556 21.8509Z" fill="white"/>
<path d="M240.122 14.0536L239.338 14.2617C239.213 13.8732 239.035 13.5379 238.804 13.2558C238.573 12.9737 238.281 12.7564 237.93 12.6037C237.583 12.4465 237.167 12.3679 236.681 12.3679C235.899 12.3679 235.259 12.5621 234.759 12.9506C234.265 13.3391 234.017 13.8455 234.017 14.4698C234.017 14.9786 234.186 15.3994 234.524 15.7324C234.861 16.0607 235.377 16.3105 236.071 16.4816L237.708 16.8909C238.55 17.099 239.183 17.4366 239.609 17.9037C240.034 18.3661 240.247 18.9419 240.247 19.631C240.247 20.2184 240.087 20.7387 239.768 21.1919C239.449 21.6451 239.008 21.9989 238.443 22.2532C237.884 22.5076 237.232 22.6348 236.487 22.6348C235.493 22.6348 234.676 22.4036 234.038 21.9411C233.4 21.474 232.99 20.8057 232.81 19.9363L233.622 19.7281C233.775 20.4218 234.091 20.9514 234.572 21.3168C235.058 21.6775 235.694 21.8578 236.48 21.8578C237.35 21.8578 238.05 21.652 238.582 21.2404C239.118 20.8288 239.387 20.3016 239.387 19.6588C239.387 19.1685 239.229 18.7546 238.915 18.417C238.6 18.0794 238.124 17.832 237.486 17.6748L235.786 17.2585C234.917 17.0458 234.265 16.7059 233.83 16.2388C233.395 15.7671 233.178 15.1866 233.178 14.4976C233.178 13.9241 233.328 13.42 233.629 12.9853C233.93 12.5505 234.343 12.2106 234.871 11.9655C235.398 11.7204 236.001 11.5979 236.681 11.5979C237.583 11.5979 238.318 11.8106 238.887 12.2361C239.456 12.6615 239.867 13.2674 240.122 14.0536Z" fill="white"/>
<path d="M222.31 22.4128V8.2056H223.15V14.1368H223.233C223.4 13.679 223.635 13.2581 223.941 12.8743C224.246 12.4904 224.625 12.1829 225.078 11.9517C225.531 11.7158 226.061 11.5979 226.667 11.5979C227.522 11.5979 228.269 11.836 228.907 12.3124C229.546 12.7841 230.041 13.4362 230.392 14.2686C230.744 15.0965 230.919 16.0445 230.919 17.1128C230.919 18.1904 230.744 19.1454 230.392 19.9779C230.041 20.8057 229.548 21.4555 228.914 21.9272C228.281 22.3989 227.534 22.6348 226.674 22.6348C226.068 22.6348 225.538 22.5192 225.085 22.2879C224.632 22.0521 224.253 21.7422 223.948 21.3584C223.642 20.9699 223.404 20.5467 223.233 20.0889H223.136V22.4128H222.31ZM223.143 17.1059C223.143 18.0124 223.279 18.824 223.552 19.5409C223.83 20.253 224.227 20.8172 224.745 21.2335C225.263 21.6451 225.883 21.8509 226.604 21.8509C227.335 21.8509 227.96 21.6428 228.478 21.2265C228.995 20.8057 229.391 20.2369 229.664 19.52C229.941 18.8032 230.08 17.9985 230.08 17.1059C230.08 16.2133 229.941 15.4109 229.664 14.6987C229.391 13.9865 228.995 13.4246 228.478 13.013C227.96 12.5968 227.335 12.3887 226.604 12.3887C225.883 12.3887 225.263 12.5945 224.745 13.0061C224.227 13.4131 223.83 13.9726 223.552 14.6849C223.279 15.3924 223.143 16.1995 223.143 17.1059Z" fill="white"/>
<path d="M214.603 22.6417C213.987 22.6417 213.423 22.5192 212.91 22.2741C212.401 22.0289 211.992 21.6705 211.682 21.1988C211.377 20.7271 211.224 20.1536 211.224 19.4784C211.224 19.0344 211.303 18.6436 211.46 18.306C211.617 17.9684 211.86 17.6771 212.188 17.432C212.517 17.1868 212.938 16.9857 213.451 16.8284C213.964 16.6666 214.577 16.5417 215.289 16.4538C215.83 16.3891 216.314 16.3266 216.739 16.2665C217.164 16.2018 217.498 16.1023 217.738 15.9682C217.983 15.8341 218.106 15.6306 218.106 15.3578V14.9138C218.106 14.1368 217.861 13.5194 217.37 13.0616C216.88 12.6037 216.205 12.3748 215.345 12.3748C214.582 12.3748 213.939 12.5436 213.416 12.8812C212.898 13.2142 212.535 13.6443 212.327 14.1715L211.529 13.8732C211.733 13.3645 212.026 12.9413 212.41 12.6037C212.799 12.2661 213.243 12.0141 213.742 11.8476C214.246 11.6811 214.773 11.5979 215.324 11.5979C215.8 11.5979 216.254 11.6649 216.684 11.799C217.118 11.9331 217.505 12.1366 217.842 12.4095C218.184 12.6824 218.455 13.0315 218.654 13.457C218.852 13.8778 218.952 14.3819 218.952 14.9693V22.4128H218.106V20.4912H218.043C217.858 20.8889 217.604 21.252 217.28 21.5803C216.961 21.9041 216.575 22.1631 216.122 22.3573C215.673 22.5469 215.167 22.6417 214.603 22.6417ZM214.686 21.8578C215.352 21.8578 215.941 21.696 216.455 21.3722C216.973 21.0439 217.377 20.5953 217.668 20.0264C217.96 19.4576 218.106 18.8125 218.106 18.091V16.5232C217.999 16.6157 217.844 16.699 217.641 16.7729C217.442 16.8423 217.215 16.9047 216.961 16.9602C216.711 17.0111 216.448 17.0573 216.17 17.099C215.897 17.136 215.632 17.1706 215.372 17.203C214.596 17.2955 213.962 17.4389 213.472 17.6331C212.986 17.8228 212.63 18.0725 212.403 18.3823C212.181 18.6922 212.07 19.0668 212.07 19.5061C212.07 20.2323 212.32 20.8057 212.82 21.2265C213.319 21.6474 213.941 21.8578 214.686 21.8578Z" fill="white"/>
<path d="M208.764 8.2056V22.4128H207.918V8.2056H208.764Z" fill="white"/>
</svg>
